<svg xmlns="http://www.w3.org/2000/svg" version="1.1" xmlns:xlink="http://www.w3.org/1999/xlink" xmlns:svgjs="http://svgjs.com/svgjs" width="1000" height="1000" overflow="visible"><g class="overview-logo-color" opacity="1"><defs id="SvgjsDefs1002"></defs><g id="SvgjsG1008" transform="scale(1.2311688311688311)" opacity="1"><g id="SvgjsG1009" class="UHZmaJrs3" transform="translate(-14.510642393343023, -14.395206041189324) scale(1.581369497511797)" light-content="false" non-strokable="false" fill="#ca12f8"><path d="M53.498 74.064a1.945 1.945 0 0 1-.111-3.885c2.732-.16 5.207-.736 7.355-1.717 1.958-.895 3.693-2.043 5.176-3.424l-4.421-4.161a13.137 13.137 0 0 1-2.982 2.125c-1.827.962-3.974 1.452-6.378 1.452-2.062 0-3.997-.385-5.752-1.143a13.46 13.46 0 0 1-4.56-3.201c-1.253-1.345-2.245-2.978-2.948-4.851-.695-1.854-1.047-3.903-1.047-6.098 0-2.154.354-4.175 1.049-6.011.703-1.848 1.704-3.478 2.979-4.848a13.912 13.912 0 0 1 4.605-3.253c3.407-1.494 7.689-1.617 11.517-.049a11.017 11.017 0 0 1 3.205 1.997l4.312-4.314c-1.419-1.228-3.142-2.215-5.141-2.946-5.73-2.092-11.947-1.917-17.014-.034-2.616.972-4.924 2.379-6.856 4.183-1.925 1.796-3.457 4.006-4.552 6.569-1.101 2.574-1.659 5.504-1.659 8.709 0 3.132.549 6.021 1.632 8.597 1.081 2.574 2.589 4.811 4.483 6.648 1.892 1.836 4.168 3.279 6.763 4.289 1.401.543 2.894.945 4.436 1.199a1.945 1.945 0 0 1 1.605 2.232 1.946 1.946 0 0 1-2.233 1.604 26.203 26.203 0 0 1-5.215-1.412c-3.083-1.2-5.795-2.923-8.063-5.123-2.271-2.204-4.074-4.873-5.358-7.933-1.285-3.053-1.937-6.451-1.937-10.103 0-3.732.663-7.178 1.972-10.237 1.309-3.064 3.15-5.717 5.474-7.885 2.312-2.155 5.055-3.833 8.155-4.984 5.93-2.202 13.108-2.381 19.705.028 3.268 1.196 5.965 2.98 8.018 5.307.678.77.643 1.935-.084 2.66l-7.135 7.136a1.944 1.944 0 0 1-2.945-.23c-.775-1.066-1.771-1.838-3.041-2.359-2.859-1.171-6.036-1.062-8.475.011a10.018 10.018 0 0 0-3.326 2.343c-.932 1.001-1.669 2.205-2.191 3.579-.528 1.393-.796 2.95-.796 4.631 0 1.726.268 3.317.799 4.731.524 1.395 1.248 2.596 2.155 3.57a9.616 9.616 0 0 0 3.254 2.279c1.266.547 2.683.822 4.211.822 1.766 0 3.302-.338 4.569-1.006 1.298-.682 2.306-1.535 3.079-2.613a1.961 1.961 0 0 1 1.393-.8 1.953 1.953 0 0 1 1.52.521l7.318 6.891a1.94 1.94 0 0 1 .135 2.69c-2.102 2.414-4.725 4.348-7.794 5.751-2.589 1.181-5.529 1.874-8.744 2.06-.04.004-.077.006-.116.006z"></path><path d="M47.281 90.656c-.045 0-.091-.001-.136-.004C25.854 89.18 9.176 71.293 9.176 49.927 9.176 27.416 27.49 9.103 50 9.103c22.51 0 40.824 18.313 40.824 40.824 0 21.292-15.973 38.772-37.154 40.659a1.95 1.95 0 0 1-2.108-1.764 1.944 1.944 0 0 1 1.765-2.107c19.16-1.709 33.609-17.523 33.609-36.788C86.936 29.56 70.366 12.99 50 12.99c-20.367 0-36.936 16.569-36.936 36.937 0 19.331 15.087 35.514 34.349 36.844a1.944 1.944 0 0 1-.132 3.885z"></path></g><g id="SvgjsG1010" class="text" transform="translate(308.1538499539449, 70.48283501315746) scale(1)" light-content="false" fill="#141414"><path d="M-138.23 0.79C-130.58 0.79 -126.41 -2.6 -125.7 -9.38L-129.68 -9.61C-130.06 -5.3 -132.91 -3.15 -138.23 -3.15C-141.48 -3.15 -143.77 -4.11 -145.08 -6.04C-146.39 -7.97 -147.07 -11.14 -147.1 -15.56L-125.19 -15.56L-125.19 -16.74C-125.19 -27.53 -129.61 -32.93 -138.45 -32.93C-147.4 -32.93 -151.88 -27.31 -151.88 -16.07C-151.88 -10.41 -150.83 -6.19 -148.73 -3.4C-146.64 -0.61 -143.13 0.79 -138.23 0.79ZM-132.16 -26.44C-130.92 -24.73 -130.21 -22.31 -130.02 -19.16L-146.99 -19.16C-146.73 -22.23 -145.96 -24.64 -144.69 -26.38C-143.41 -28.12 -141.32 -28.99 -138.39 -28.99C-135.47 -28.99 -133.39 -28.14 -132.16 -26.44Z M-98.28 -30.79C-100.22 -32.22 -102.84 -32.93 -106.11 -32.93C-109.39 -32.93 -111.99 -32.16 -113.9 -30.62C-115.81 -29.09 -117.06 -26.93 -117.66 -24.16L-113.73 -22.98C-112.94 -26.99 -110.49 -28.99 -106.37 -28.99C-104.31 -28.99 -102.69 -28.47 -101.51 -27.42C-100.33 -26.37 -99.74 -24.46 -99.74 -21.69L-99.74 -18.49L-108.11 -17.14C-112.49 -16.43 -115.48 -15.28 -117.07 -13.71C-118.66 -12.14 -119.46 -10.08 -119.46 -7.53C-119.46 -4.98 -118.79 -2.96 -117.46 -1.46C-116.13 0.04 -114.05 0.79 -111.2 0.79C-106.89 0.79 -102.94 -1.14 -99.34 -5L-98.11 0L-94.9 0L-94.9 -21.69C-94.9 -26.15 -96.03 -29.18 -98.28 -30.79ZM-109.85 -2.92C-111.5 -2.92 -112.72 -3.35 -113.5 -4.21C-114.29 -5.08 -114.68 -6.25 -114.68 -7.73C-114.68 -9.21 -114.18 -10.46 -113.17 -11.49C-112.15 -12.52 -110.32 -13.28 -107.66 -13.77L-99.74 -15.11L-99.74 -8.37C-103.11 -4.74 -106.48 -2.92 -109.85 -2.92Z M-86.48 -28.43L-69.17 -28.43L-87.15 -3.26L-87.15 0L-62.65 0L-62.65 -3.71L-81.25 -3.71L-63.38 -28.88L-63.38 -32.14L-86.48 -32.14Z M-47.82 13.77L-30.74 -32.14L-35.68 -32.14L-44.9 -6.12L-54.39 -32.14L-59.39 -32.14L-47.26 0.22L-52.2 12.98Z M-25.96 -15.96L-6.18 -15.96L-6.18 -19.78L-25.96 -19.78Z M5.51 -16.07C5.51 -19.82 6.03 -22.79 7.08 -25C8.32 -27.66 10.66 -28.99 14.1 -28.99C16.91 -28.99 18.93 -28.44 20.14 -27.34C21.36 -26.23 22.03 -24.59 22.14 -22.42L26.02 -22.98C25.79 -26.2 24.76 -28.67 22.93 -30.37C21.09 -32.07 18.09 -32.93 13.93 -32.93C8.73 -32.93 5.15 -31.2 3.2 -27.76C2.27 -26.07 1.61 -24.3 1.24 -22.45C0.86 -20.59 0.67 -18.11 0.67 -15C0.67 -11.89 1.2 -9.03 2.25 -6.41C4.16 -1.61 8.05 0.79 13.93 0.79C18.09 0.79 21.09 -0.1 22.93 -1.88C24.76 -3.66 25.81 -6.22 26.07 -9.55L22.14 -9.72C22.03 -7.55 21.36 -5.91 20.14 -4.8C18.93 -3.7 16.91 -3.15 14.1 -3.15C10.66 -3.15 8.32 -4.48 7.08 -7.14C6.48 -8.41 6.07 -9.76 5.84 -11.18C5.62 -12.61 5.51 -14.23 5.51 -16.07Z M39.33 0L39.33 -22.08C41.8 -26.17 45.57 -28.3 50.63 -28.49L50.63 -32.93C45.57 -32.74 41.73 -30.57 39.11 -26.41L37.37 -32.14L34.5 -32.14L34.5 0Z M67.76 0.79C75.41 0.79 79.58 -2.6 80.29 -9.38L76.31 -9.61C75.93 -5.3 73.08 -3.15 67.76 -3.15C64.51 -3.15 62.22 -4.11 60.91 -6.04C59.6 -7.97 58.92 -11.14 58.89 -15.56L80.8 -15.56L80.8 -16.74C80.8 -27.53 76.38 -32.93 67.54 -32.93C58.59 -32.93 54.11 -27.31 54.11 -16.07C54.11 -10.41 55.16 -6.19 57.26 -3.4C59.35 -0.61 62.86 0.79 67.76 0.79ZM73.83 -26.44C75.07 -24.73 75.78 -22.31 75.97 -19.16L59 -19.16C59.26 -22.23 60.03 -24.64 61.3 -26.38C62.58 -28.12 64.67 -28.99 67.6 -28.99C70.52 -28.99 72.6 -28.14 73.83 -26.44Z M96.93 0.79C101.05 0.79 104.81 -1.11 108.22 -4.89L109.63 0L112.83 0L112.83 -43.15L108 -42.59L108 -30.74C104.96 -32.2 102 -32.93 99.12 -32.93C90.76 -32.93 86.59 -27.31 86.59 -16.07C86.59 -4.83 90.03 0.79 96.93 0.79ZM98.5 -3.15C93.78 -3.15 91.42 -7.45 91.42 -16.07C91.42 -20.19 92.08 -23.39 93.39 -25.68C94.7 -27.96 96.93 -29.11 100.07 -29.11C102.66 -29.11 105.3 -28.38 108 -26.91L108 -8.54C105.04 -4.94 101.87 -3.15 98.5 -3.15Z M124.74 -32.14L124.74 0L129.57 0L129.57 -32.14ZM127.16 -37.53C129.14 -37.53 130.13 -38.57 130.13 -40.65C130.13 -42.73 129.14 -43.77 127.16 -43.77C125.25 -43.77 124.29 -42.73 124.29 -40.65C124.29 -38.57 125.25 -37.53 127.16 -37.53Z M136.71 -28.83L142.22 -28.83L142.22 -7.36C142.22 -5.08 142.53 -3.26 143.17 -1.91C143.55 -1.01 144.18 -0.34 145.08 0.11C145.98 0.56 147.13 0.79 148.54 0.79C149.94 0.79 151.66 0.49 153.68 -0.11L153.12 -3.37C151.8 -3.07 150.7 -2.92 149.8 -2.92C148.9 -2.92 148.22 -3.27 147.75 -3.96C147.28 -4.65 147.05 -5.84 147.05 -7.53L147.05 -28.83L153.85 -28.83L153.85 -32.14L147.05 -32.14L147.05 -39.89L142.22 -37.98L142.22 -32.14L136.71 -32.14Z"></path></g><g id="SvgjsG1011" class="text" transform="translate(242.10384690218712, 109.46911299240384) scale(1)" light-content="false" fill="#ca12f8"><path d="M-85.83 0ZM-77.72 -17.66L-83.86 -17.66L-85.83 -17.66L-85.83 -16.12L-83.86 -15.78L-83.86 -1.87L-85.83 -1.53L-85.83 0L-79.49 0L-79.49 -1.53L-81.47 -1.87L-81.47 -7.08L-77.72 -7.08C-75.84 -7.08 -74.37 -7.56 -73.32 -8.53C-72.28 -9.49 -71.75 -10.77 -71.75 -12.37C-71.75 -13.96 -72.28 -15.23 -73.32 -16.2C-74.37 -17.17 -75.84 -17.66 -77.72 -17.66ZM-81.47 -8.95L-81.47 -15.78L-77.72 -15.78C-76.52 -15.78 -75.63 -15.45 -75.03 -14.8C-74.44 -14.14 -74.14 -13.33 -74.14 -12.35C-74.14 -11.37 -74.44 -10.56 -75.03 -9.92C-75.63 -9.27 -76.52 -8.95 -77.72 -8.95Z M-69.98 0ZM-64 0.25C-62.92 0.25 -61.99 0.1 -61.22 -0.21C-60.45 -0.52 -59.83 -0.91 -59.36 -1.36L-60.29 -2.91C-60.74 -2.51 -61.26 -2.19 -61.87 -1.96C-62.48 -1.73 -63.19 -1.61 -64 -1.61C-65.11 -1.61 -65.97 -2.02 -66.59 -2.83C-67.2 -3.64 -67.52 -4.68 -67.54 -5.94L-67.51 -6L-58.99 -6L-58.99 -7.5C-58.99 -9.27 -59.45 -10.7 -60.36 -11.76C-61.27 -12.83 -62.6 -13.37 -64.37 -13.37C-65.89 -13.37 -67.2 -12.75 -68.31 -11.5C-69.43 -10.26 -69.98 -8.71 -69.98 -6.84L-69.98 -6.31C-69.98 -4.37 -69.44 -2.79 -68.36 -1.57C-67.28 -0.35 -65.83 0.25 -64 0.25ZM-64.37 -11.49C-63.38 -11.49 -62.64 -11.17 -62.14 -10.54C-61.63 -9.91 -61.38 -9.12 -61.38 -8.19L-61.38 -7.87L-67.44 -7.87L-67.46 -7.93C-67.33 -8.95 -66.98 -9.8 -66.42 -10.47C-65.85 -11.15 -65.17 -11.49 -64.37 -11.49Z M-56.54 0ZM-50.21 -13.12L-52.19 -13.12L-56.54 -13.12L-56.54 -11.58L-54.57 -11.24L-54.57 -1.87L-56.54 -1.53L-56.54 0L-52.19 0L-46.4 -9.31L-46.33 -9.29L-46.33 -1.87L-48.31 -1.53L-48.31 0L-41.97 0L-41.97 -1.53L-43.94 -1.87L-43.94 -11.24L-41.97 -11.58L-41.97 -13.12L-43.94 -13.12L-46.33 -13.12L-52.12 -3.81L-52.19 -3.83L-52.19 -11.24L-50.21 -11.58ZM-45.57 -18.7L-47.4 -18.7C-47.4 -18.18 -47.54 -17.75 -47.82 -17.41C-48.11 -17.08 -48.54 -16.91 -49.12 -16.91C-49.72 -16.91 -50.16 -17.08 -50.44 -17.41C-50.72 -17.75 -50.86 -18.18 -50.86 -18.7L-52.67 -18.7L-52.7 -18.63C-52.74 -17.69 -52.43 -16.93 -51.78 -16.34C-51.12 -15.75 -50.24 -15.45 -49.12 -15.45C-48.01 -15.45 -47.13 -15.75 -46.48 -16.34C-45.82 -16.93 -45.51 -17.69 -45.54 -18.63Z M-27.42 -13.12L-39.84 -13.12L-39.84 -9.22L-37.81 -9.22L-37.62 -11.27L-34.86 -11.27L-34.86 -1.87L-36.83 -1.53L-36.83 0L-30.49 0L-30.49 -1.53L-32.47 -1.87L-32.47 -11.27L-29.65 -11.27L-29.47 -9.22L-27.42 -9.22Z M-18.9 -13.12L-20.87 -13.12L-25.23 -13.12L-25.23 -11.58L-23.25 -11.24L-23.25 -1.87L-25.23 -1.53L-25.23 0L-20.87 0L-15.09 -9.31L-15.02 -9.29L-15.02 -1.87L-16.99 -1.53L-16.99 0L-10.65 0L-10.65 -1.53L-12.63 -1.87L-12.63 -11.24L-10.65 -11.58L-10.65 -13.12L-12.63 -13.12L-15.02 -13.12L-20.8 -3.81L-20.87 -3.83L-20.87 -11.24L-18.9 -11.58Z M-8.3 -11.58L-6.32 -11.24L-6.32 -1.87L-8.3 -1.53L-8.3 0L-1.95 0L-1.95 -1.53L-3.93 -1.87L-3.93 -5.58L1.9 -5.58L1.9 -1.87L-0.07 -1.53L-0.07 0L6.28 0L6.28 -1.53L4.31 -1.87L4.31 -11.24L6.28 -11.58L6.28 -13.12L4.31 -13.12L1.9 -13.12L-0.07 -13.12L-0.07 -11.58L1.9 -11.24L1.9 -7.45L-3.93 -7.45L-3.93 -11.24L-1.95 -11.58L-1.95 -13.12L-8.3 -13.12Z M10.3 -11.24L10.3 -1.87L8.32 -1.53L8.32 0L14.66 0L14.66 -1.53L12.69 -1.87L12.69 -11.23L17.31 -11.23L17.48 -9.74L19.03 -9.74L19.03 -13.1L18.64 -13.1L18.64 -13.12L8.32 -13.12L8.32 -11.58Z M27.52 0ZM44.78 -14.14L44.55 -6.99L44.55 -1.87L42.57 -1.53L42.57 0L48.91 0L48.91 -1.53L46.94 -1.87L46.94 -15.78L48.91 -16.12L48.91 -17.66L43.87 -17.66L38.25 -3.31L38.18 -3.31L32.55 -17.66L29.5 -17.66L27.52 -17.66L27.52 -16.12L29.5 -15.78L29.5 -1.87L27.52 -1.53L27.52 0L33.86 0L33.86 -1.53L31.89 -1.87L31.89 -6.99L31.64 -14.13L31.7 -14.14L37.42 0L39.01 0L44.72 -14.15Z M57.93 -2.11L58.28 -2.11L58.28 -0.92L56.3 -0.57L56.3 0.96L62.64 0.96L62.64 -0.57L60.67 -0.92L60.67 -2.11L60.98 -2.11C63.02 -2.11 64.72 -2.74 66.1 -3.98C67.47 -5.23 68.15 -6.84 68.15 -8.79C68.15 -10.73 67.47 -12.33 66.1 -13.57C64.72 -14.82 63.02 -15.44 60.98 -15.44L60.67 -15.44L60.67 -16.74L62.64 -17.09L62.64 -18.62L56.3 -18.62L56.3 -17.09L58.28 -16.74L58.28 -15.44L57.93 -15.44C55.89 -15.44 54.19 -14.81 52.83 -13.56C51.46 -12.31 50.78 -10.71 50.78 -8.77C50.78 -6.81 51.46 -5.21 52.82 -3.97C54.18 -2.73 55.88 -2.11 57.93 -2.11ZM57.93 -13.56L58.28 -13.56L58.28 -3.98L57.93 -3.98C56.4 -3.98 55.22 -4.41 54.39 -5.26C53.56 -6.12 53.15 -7.29 53.15 -8.77C53.15 -10.23 53.56 -11.4 54.39 -12.26C55.22 -13.13 56.4 -13.56 57.93 -13.56ZM60.67 -13.56L61.01 -13.56C62.51 -13.56 63.68 -13.13 64.52 -12.27C65.36 -11.41 65.77 -10.25 65.77 -8.79C65.77 -7.31 65.36 -6.14 64.52 -5.28C63.68 -4.41 62.51 -3.98 61.01 -3.98L60.67 -3.98Z M70.13 0ZM85.76 -8.7L85.76 -8.95C85.76 -11.51 85.02 -13.65 83.55 -15.35C82.07 -17.06 80.16 -17.91 77.82 -17.91C75.54 -17.91 73.69 -17.06 72.26 -15.35C70.84 -13.65 70.13 -11.51 70.13 -8.95L70.13 -8.7C70.13 -6.12 70.84 -3.99 72.26 -2.29C73.69 -0.59 75.54 0.25 77.82 0.25C80.16 0.25 82.07 -0.59 83.55 -2.29C85.02 -3.99 85.76 -6.12 85.76 -8.7ZM83.37 -8.98L83.37 -8.7C83.37 -6.62 82.89 -4.93 81.92 -3.64C80.95 -2.34 79.58 -1.7 77.82 -1.7C76.15 -1.7 74.85 -2.35 73.92 -3.64C72.98 -4.94 72.52 -6.63 72.52 -8.7L72.52 -8.98C72.52 -11.02 72.98 -12.69 73.92 -14C74.85 -15.3 76.15 -15.95 77.82 -15.95C79.56 -15.95 80.92 -15.3 81.9 -14C82.88 -12.7 83.37 -11.03 83.37 -8.98Z"></path></g></g></g></svg>